<svg width="48" height="48" viewBox="0 0 48 48" fill="none" xmlns="http://www.w3.org/2000/svg">
  <path d="M40 8H8C5.79086 8 4 9.79086 4 12V40C4 42.2091 5.79086 44 8 44H40C42.2091 44 44 42.2091 44 40V12C44 9.79086 42.2091 8 40 8Z" stroke="currentColor" stroke-width="2"/>
  <path d="M4 16H44" stroke="currentColor" stroke-width="2"/>
  <circle cx="10" cy="12" r="1.5" fill="currentColor"/>
  <circle cx="14" cy="12" r="1.5" fill="currentColor"/>
  <circle cx="18" cy="12" r="1.5" fill="currentColor"/>
  <rect x="8" y="20" width="32" height="20" rx="2" stroke="currentColor" stroke-width="2"/>
  <path d="M12 24V36" stroke="currentColor" stroke-width="2"/>
  <path d="M16 24V36" stroke="currentColor" stroke-width="2"/>
  <path d="M20 24V36" stroke="currentColor" stroke-width="2"/>
  <path d="M24 24V36" stroke="currentColor" stroke-width="2"/>
  <path d="M28 24V36" stroke="currentColor" stroke-width="2"/>
  <path d="M32 24V36" stroke="currentColor" stroke-width="2"/>
  <path d="M36 24V36" stroke="currentColor" stroke-width="2"/>
</svg> 